%TF.GenerationSoftware,KiCad,Pcbnew,(5.1.9)-1*%
%TF.CreationDate,2022-11-16T15:29:30+01:00*%
%TF.ProjectId,plc14500,706c6331-3435-4303-902e-6b696361645f,rev?*%
%TF.SameCoordinates,Original*%
%TF.FileFunction,Legend,Bot*%
%TF.FilePolarity,Positive*%
%FSLAX46Y46*%
G04 Gerber Fmt 4.6, Leading zero omitted, Abs format (unit mm)*
G04 Created by KiCad (PCBNEW (5.1.9)-1) date 2022-11-16 15:29:30*
%MOMM*%
%LPD*%
G01*
G04 APERTURE LIST*
%ADD10C,0.150000*%
%ADD11C,0.120000*%
G04 APERTURE END LIST*
D10*
X99958095Y-86532380D02*
X100291428Y-86056190D01*
X100529523Y-86532380D02*
X100529523Y-85532380D01*
X100148571Y-85532380D01*
X100053333Y-85580000D01*
X100005714Y-85627619D01*
X99958095Y-85722857D01*
X99958095Y-85865714D01*
X100005714Y-85960952D01*
X100053333Y-86008571D01*
X100148571Y-86056190D01*
X100529523Y-86056190D01*
X99529523Y-86008571D02*
X99196190Y-86008571D01*
X99053333Y-86532380D02*
X99529523Y-86532380D01*
X99529523Y-85532380D01*
X99053333Y-85532380D01*
X98767619Y-85532380D02*
X98434285Y-86532380D01*
X98100952Y-85532380D01*
X97767619Y-86437142D02*
X97720000Y-86484761D01*
X97767619Y-86532380D01*
X97815238Y-86484761D01*
X97767619Y-86437142D01*
X97767619Y-86532380D01*
X97339047Y-86246666D02*
X96862857Y-86246666D01*
X97434285Y-86532380D02*
X97100952Y-85532380D01*
X96767619Y-86532380D01*
X105179523Y-85102380D02*
X105179523Y-84102380D01*
X104798571Y-84102380D01*
X104703333Y-84150000D01*
X104655714Y-84197619D01*
X104608095Y-84292857D01*
X104608095Y-84435714D01*
X104655714Y-84530952D01*
X104703333Y-84578571D01*
X104798571Y-84626190D01*
X105179523Y-84626190D01*
X103703333Y-85102380D02*
X104179523Y-85102380D01*
X104179523Y-84102380D01*
X102798571Y-85007142D02*
X102846190Y-85054761D01*
X102989047Y-85102380D01*
X103084285Y-85102380D01*
X103227142Y-85054761D01*
X103322380Y-84959523D01*
X103370000Y-84864285D01*
X103417619Y-84673809D01*
X103417619Y-84530952D01*
X103370000Y-84340476D01*
X103322380Y-84245238D01*
X103227142Y-84150000D01*
X103084285Y-84102380D01*
X102989047Y-84102380D01*
X102846190Y-84150000D01*
X102798571Y-84197619D01*
X101846190Y-85102380D02*
X102417619Y-85102380D01*
X102131904Y-85102380D02*
X102131904Y-84102380D01*
X102227142Y-84245238D01*
X102322380Y-84340476D01*
X102417619Y-84388095D01*
X100989047Y-84435714D02*
X100989047Y-85102380D01*
X101227142Y-84054761D02*
X101465238Y-84769047D01*
X100846190Y-84769047D01*
X99989047Y-84102380D02*
X100465238Y-84102380D01*
X100512857Y-84578571D01*
X100465238Y-84530952D01*
X100370000Y-84483333D01*
X100131904Y-84483333D01*
X100036666Y-84530952D01*
X99989047Y-84578571D01*
X99941428Y-84673809D01*
X99941428Y-84911904D01*
X99989047Y-85007142D01*
X100036666Y-85054761D01*
X100131904Y-85102380D01*
X100370000Y-85102380D01*
X100465238Y-85054761D01*
X100512857Y-85007142D01*
X99322380Y-84102380D02*
X99227142Y-84102380D01*
X99131904Y-84150000D01*
X99084285Y-84197619D01*
X99036666Y-84292857D01*
X98989047Y-84483333D01*
X98989047Y-84721428D01*
X99036666Y-84911904D01*
X99084285Y-85007142D01*
X99131904Y-85054761D01*
X99227142Y-85102380D01*
X99322380Y-85102380D01*
X99417619Y-85054761D01*
X99465238Y-85007142D01*
X99512857Y-84911904D01*
X99560476Y-84721428D01*
X99560476Y-84483333D01*
X99512857Y-84292857D01*
X99465238Y-84197619D01*
X99417619Y-84150000D01*
X99322380Y-84102380D01*
X98370000Y-84102380D02*
X98274761Y-84102380D01*
X98179523Y-84150000D01*
X98131904Y-84197619D01*
X98084285Y-84292857D01*
X98036666Y-84483333D01*
X98036666Y-84721428D01*
X98084285Y-84911904D01*
X98131904Y-85007142D01*
X98179523Y-85054761D01*
X98274761Y-85102380D01*
X98370000Y-85102380D01*
X98465238Y-85054761D01*
X98512857Y-85007142D01*
X98560476Y-84911904D01*
X98608095Y-84721428D01*
X98608095Y-84483333D01*
X98560476Y-84292857D01*
X98512857Y-84197619D01*
X98465238Y-84150000D01*
X98370000Y-84102380D01*
X96846190Y-84721428D02*
X96084285Y-84721428D01*
X94846190Y-85102380D02*
X94846190Y-84102380D01*
X94274761Y-85102380D01*
X94274761Y-84102380D01*
X93370000Y-85102380D02*
X93370000Y-84578571D01*
X93417619Y-84483333D01*
X93512857Y-84435714D01*
X93703333Y-84435714D01*
X93798571Y-84483333D01*
X93370000Y-85054761D02*
X93465238Y-85102380D01*
X93703333Y-85102380D01*
X93798571Y-85054761D01*
X93846190Y-84959523D01*
X93846190Y-84864285D01*
X93798571Y-84769047D01*
X93703333Y-84721428D01*
X93465238Y-84721428D01*
X93370000Y-84673809D01*
X92893809Y-84435714D02*
X92893809Y-85102380D01*
X92893809Y-84530952D02*
X92846190Y-84483333D01*
X92750952Y-84435714D01*
X92608095Y-84435714D01*
X92512857Y-84483333D01*
X92465238Y-84578571D01*
X92465238Y-85102380D01*
X91846190Y-85102380D02*
X91941428Y-85054761D01*
X91989047Y-85007142D01*
X92036666Y-84911904D01*
X92036666Y-84626190D01*
X91989047Y-84530952D01*
X91941428Y-84483333D01*
X91846190Y-84435714D01*
X91703333Y-84435714D01*
X91608095Y-84483333D01*
X91560476Y-84530952D01*
X91512857Y-84626190D01*
X91512857Y-84911904D01*
X91560476Y-85007142D01*
X91608095Y-85054761D01*
X91703333Y-85102380D01*
X91846190Y-85102380D01*
D11*
%TO.C,U6*%
X109980000Y-69280000D02*
X112520000Y-69280000D01*
X112520000Y-69280000D02*
X112520000Y-71950000D01*
X109980000Y-71950000D02*
X71750000Y-71950000D01*
X115190000Y-71950000D02*
X112520000Y-71950000D01*
X112520000Y-56580000D02*
X112520000Y-53910000D01*
X112520000Y-56580000D02*
X74420000Y-56580000D01*
X74420000Y-56580000D02*
X74420000Y-53910000D01*
X109980000Y-69280000D02*
X109980000Y-71950000D01*
X109980000Y-69280000D02*
X74420000Y-69280000D01*
X74420000Y-69280000D02*
X74420000Y-71950000D01*
X71750000Y-71950000D02*
X71750000Y-53910000D01*
X71750000Y-53910000D02*
X115190000Y-53910000D01*
X115190000Y-53910000D02*
X115190000Y-71950000D01*
D10*
X90842380Y-62398095D02*
X91651904Y-62398095D01*
X91747142Y-62445714D01*
X91794761Y-62493333D01*
X91842380Y-62588571D01*
X91842380Y-62779047D01*
X91794761Y-62874285D01*
X91747142Y-62921904D01*
X91651904Y-62969523D01*
X90842380Y-62969523D01*
X90842380Y-63874285D02*
X90842380Y-63683809D01*
X90890000Y-63588571D01*
X90937619Y-63540952D01*
X91080476Y-63445714D01*
X91270952Y-63398095D01*
X91651904Y-63398095D01*
X91747142Y-63445714D01*
X91794761Y-63493333D01*
X91842380Y-63588571D01*
X91842380Y-63779047D01*
X91794761Y-63874285D01*
X91747142Y-63921904D01*
X91651904Y-63969523D01*
X91413809Y-63969523D01*
X91318571Y-63921904D01*
X91270952Y-63874285D01*
X91223333Y-63779047D01*
X91223333Y-63588571D01*
X91270952Y-63493333D01*
X91318571Y-63445714D01*
X91413809Y-63398095D01*
%TD*%
M02*
