M48
; DRILL file {KiCad (5.1.9)-1} date 11/16/22 15:29:33
; FORMAT={-:-/ absolute / inch / decimal}
; #@! TF.CreationDate,2022-11-16T15:29:33+01:00
; #@! TF.GenerationSoftware,Kicad,Pcbnew,(5.1.9)-1
; #@! TF.FileFunction,Plated,1,2,PTH
FMAT,2
INCH
T1C0.0157
T2C0.0197
T3C0.0276
T4C0.0300
T5C0.0315
T6C0.0320
T7C0.0354
T8C0.0394
T9C0.0512
T10C0.1181
%
G90
G05
T1
X3.2256Y-4.7252
X3.2362Y-5.1728
X3.2451Y-5.321
X3.2543Y-2.3756
X3.3244Y-2.6551
X3.3331Y-4.6465
X3.3461Y-4.3795
X3.4142Y-4.9661
X3.4264Y-3.8516
X3.4717Y-4.665
X3.5083Y-5.1835
X3.5921Y-4.8795
X3.6394Y-4.6701
X3.7583Y-3.9276
X3.834Y-3.8765
X3.8622Y-5.3606
X3.8634Y-5.1551
X3.8826Y-4.369
X3.9035Y-4.9449
X3.939Y-3.1681
X3.9693Y-4.8902
X3.9898Y-5.3744
X4.0067Y-4.6994
X4.0327Y-4.1744
X4.0656Y-5.3411
X4.067Y-5.3925
X4.0777Y-2.6624
X4.1012Y-5.1642
X4.1445Y-4.1634
X4.1484Y-3.9083
X4.152Y-4.3858
X4.2547Y-4.4126
X4.2892Y-4.8154
X4.335Y-3.6319
X4.3933Y-5.165
X4.4055Y-3.1945
X4.4359Y-4.9273
X4.4417Y-3.0677
X4.4464Y-3.6608
X4.4683Y-5.1674
X4.4798Y-2.8332
X4.5091Y-5.228
X4.5453Y-5.0709
X4.563Y-3.0229
X4.5713Y-4.3665
X4.6129Y-5.1935
X4.6522Y-2.9182
X4.6709Y-4.8902
X4.7465Y-3.0138
X4.8213Y-3.039
X4.8655Y-1.9501
X4.8701Y-2.3421
X4.9272Y-3.7303
X5.0366Y-3.0217
X5.0575Y-5.3811
X5.1189Y-2.0933
X5.1398Y-4.1488
X5.2102Y-2.8232
X5.212Y-3.8122
X5.2134Y-1.8748
X5.2264Y-3.5028
X5.2383Y-4.1295
X5.2394Y-4.4067
X5.3177Y-3.2449
X5.3445Y-3.0237
X5.376Y-4.3504
X5.4016Y-4.8299
X5.4089Y-3.4956
X5.4289Y-3.2344
X5.448Y-2.7197
X5.4614Y-5.0732
X5.5102Y-2.1979
X5.5125Y-3.8237
X5.528Y-3.2555
X5.5437Y-3.4087
X5.5483Y-4.6226
X5.5836Y-4.2985
X5.6059Y-3.3358
X5.6331Y-2.7165
X5.7236Y-5.1075
X5.824Y-2.724
X5.9295Y-2.0783
X5.9831Y-3.8213
X5.9888Y-4.3077
X6.0287Y-2.724
X6.0547Y-3.6717
X6.2063Y-3.8193
X6.2492Y-2.6441
X6.2718Y-3.6352
X6.294Y-3.3981
X6.3345Y-3.848
X6.3758Y-3.4361
X6.3867Y-3.346
X6.416Y-2.3417
X6.5063Y-2.2217
X6.536Y-5.1571
X6.552Y-2.7217
X6.6079Y-3.5992
X6.7473Y-3.9055
X6.7559Y-4.123
X6.778Y-2.1689
X6.8854Y-3.5941
X6.9854Y-2.1724
X7.0421Y-3.5941
X7.0827Y-3.6886
X7.1429Y-4.1898
X7.2421Y-3.5654
X7.3079Y-4.0185
X7.3465Y-3.6945
X7.385Y-2.1614
X7.4091Y-4.6331
X7.4217Y-3.6354
X7.4913Y-4.961
X7.5016Y-3.5606
X7.5484Y-3.8598
X7.5772Y-2.1614
X7.578Y-3.6102
X7.6234Y-4.4006
X7.6272Y-3.0237
X7.648Y-4.8937
X7.6602Y-3.6492
X7.7156Y-2.7581
X7.7257Y-4.291
X7.7555Y-3.5547
X7.7772Y-2.1799
X7.8025Y-2.7832
X7.839Y-3.5043
X7.8543Y-3.8441
X7.9263Y-2.9022
X7.9921Y-2.1575
X8.0047Y-3.5378
T3
X3.1398Y-4.9598
X3.1398Y-5.2598
X3.6303Y-4.9598
X3.6303Y-5.2598
X3.7221Y-4.9598
X3.7221Y-5.2598
X3.7829Y-2.328
X3.7829Y-2.628
X4.0071Y-1.9173
X4.0079Y-1.9965
X4.2133Y-4.9598
X4.2133Y-5.2598
X4.3044Y-4.9598
X4.3044Y-5.2598
X4.3071Y-1.9173
X4.3079Y-1.9965
X4.4508Y-4.6264
X4.7384Y-2.6543
X4.7384Y-2.9543
X4.7508Y-4.6264
X4.7963Y-4.9598
X4.7963Y-5.2598
X4.8232Y-2.6543
X4.8232Y-2.9543
X4.8868Y-4.9598
X4.8868Y-5.2598
X4.9081Y-2.6543
X4.9081Y-2.9543
X4.9929Y-2.6543
X4.9929Y-2.9543
X5.1626Y-2.6543
X5.1626Y-2.9543
X5.3317Y-2.415
X5.3317Y-2.715
X5.3793Y-4.9598
X5.3793Y-5.2598
X5.4692Y-4.9598
X5.4692Y-5.2598
X5.5311Y-2.415
X5.5311Y-2.715
X5.7289Y-2.9705
X5.7289Y-3.2705
X5.7305Y-2.415
X5.7305Y-2.715
X5.9289Y-2.9697
X5.9289Y-3.2697
X5.9299Y-2.415
X5.9299Y-2.715
X5.9623Y-4.9598
X5.9623Y-5.2598
X6.0515Y-4.9598
X6.0515Y-5.2598
X6.1293Y-2.415
X6.1293Y-2.715
X6.1313Y-2.9697
X6.1313Y-3.2697
X6.5454Y-4.9598
X6.5454Y-5.2598
X6.6339Y-4.9598
X6.6339Y-5.2598
X6.675Y-1.8571
X6.675Y-2.1571
X6.6762Y-2.9697
X6.6762Y-3.2697
X6.6778Y-2.415
X6.6778Y-2.715
X6.8758Y-1.8571
X6.8758Y-2.1571
X6.8769Y-2.9697
X6.8769Y-3.2697
X6.8786Y-2.415
X6.8786Y-2.715
X7.0767Y-1.8571
X7.0767Y-2.1571
X7.0776Y-2.9697
X7.0776Y-3.2697
X7.0794Y-2.415
X7.0794Y-2.715
X7.1283Y-4.9598
X7.1283Y-5.2598
X7.2775Y-1.8571
X7.2775Y-2.1571
X7.2784Y-2.9697
X7.2784Y-3.2697
X7.2803Y-2.415
X7.2803Y-2.715
X7.4784Y-1.8571
X7.4784Y-2.1571
X7.4791Y-2.9697
X7.4791Y-3.2697
X7.4811Y-2.415
X7.4811Y-2.715
X7.6792Y-1.8571
X7.6792Y-2.1571
X7.6798Y-2.9697
X7.6798Y-3.2697
X7.682Y-2.415
X7.682Y-2.715
X7.8801Y-1.8571
X7.8801Y-2.1571
X7.8806Y-2.9697
X7.8806Y-3.2697
X7.8828Y-2.415
X7.8828Y-2.715
X8.0809Y-1.8571
X8.0809Y-2.1571
X8.0813Y-2.9697
X8.0813Y-3.2697
X8.0837Y-2.415
X8.0837Y-2.715
X8.2307Y-5.0148
X8.2307Y-5.3148
X8.3453Y-5.0148
X8.3453Y-5.3148
X8.4118Y-2.0976
X8.4122Y-2.485
X8.4122Y-2.8723
X8.4122Y-3.2597
X8.4122Y-3.647
X8.4122Y-4.0344
X8.4122Y-4.4217
X8.4122Y-4.8091
X8.7118Y-2.0976
X8.7122Y-2.485
X8.7122Y-2.8723
X8.7122Y-3.2597
X8.7122Y-3.647
X8.7122Y-4.0344
X8.7122Y-4.4217
X8.7122Y-4.8091
T4
X3.313Y-5.4583
X3.313Y-5.5567
X3.3917Y-5.4583
X3.3917Y-5.5567
X3.4705Y-5.4583
X3.4705Y-5.5567
X3.8939Y-5.4583
X3.8939Y-5.5567
X3.9726Y-5.4583
X3.9726Y-5.5567
X4.0514Y-5.4583
X4.0514Y-5.5567
X4.4748Y-5.4583
X4.4748Y-5.5567
X4.5535Y-5.4583
X4.5535Y-5.5567
X4.6067Y-1.7669
X4.6067Y-1.8654
X4.6323Y-5.4583
X4.6323Y-5.5567
X4.6854Y-1.7669
X4.6854Y-1.8654
X4.7642Y-1.7669
X4.7642Y-1.8654
X5.0557Y-5.4583
X5.0557Y-5.5567
X5.1344Y-5.4583
X5.1344Y-5.5567
X5.2132Y-5.4583
X5.2132Y-5.5567
X5.6366Y-5.4583
X5.6366Y-5.5567
X5.6858Y-1.7661
X5.6858Y-1.8646
X5.7154Y-5.4583
X5.7154Y-5.5567
X5.7646Y-1.7661
X5.7646Y-1.8646
X5.7941Y-5.4583
X5.7941Y-5.5567
X5.8433Y-1.7661
X5.8433Y-1.8646
X6.2175Y-5.4583
X6.2175Y-5.5567
X6.2963Y-5.4583
X6.2963Y-5.5567
X6.375Y-5.4583
X6.375Y-5.5567
X6.7984Y-5.4583
X6.7984Y-5.5567
X6.8772Y-5.4583
X6.8772Y-5.5567
X6.9559Y-5.4583
X6.9559Y-5.5567
T5
X3.0559Y-3.1506
X3.0559Y-3.3474
X3.0559Y-3.7719
X3.0559Y-3.9687
X3.0559Y-4.2531
X3.0559Y-4.45
X3.2503Y-4.2022
X3.2503Y-4.5022
X3.2555Y-2.9492
X3.2555Y-3.5492
X3.2555Y-3.7209
X3.2555Y-4.0209
X3.3503Y-4.2022
X3.3503Y-4.5022
X3.3555Y-2.9492
X3.3555Y-3.5492
X3.3555Y-3.7209
X3.3555Y-4.0209
X3.4503Y-4.2022
X3.4503Y-4.5022
X3.4555Y-2.9492
X3.4555Y-3.5492
X3.4555Y-3.7209
X3.4555Y-4.0209
X3.5112Y-2.328
X3.5112Y-2.628
X3.5503Y-4.2022
X3.5503Y-4.5022
X3.5555Y-2.9492
X3.5555Y-3.5492
X3.5555Y-3.7209
X3.5555Y-4.0209
X3.6503Y-4.2022
X3.6503Y-4.5022
X3.651Y-2.328
X3.651Y-2.628
X3.6555Y-2.9492
X3.6555Y-3.5492
X3.6555Y-3.7209
X3.6555Y-4.0209
X3.7503Y-4.2022
X3.7503Y-4.5022
X3.7555Y-2.9492
X3.7555Y-3.5492
X3.7555Y-3.7209
X3.7555Y-4.0209
X3.8503Y-4.2022
X3.8503Y-4.5022
X3.8555Y-2.9492
X3.8555Y-3.5492
X3.8555Y-3.7209
X3.8555Y-4.0209
X3.9362Y-4.6264
X3.9555Y-2.9492
X3.9555Y-3.5492
X4.0451Y-3.7719
X4.0451Y-3.9687
X4.0451Y-4.2531
X4.0451Y-4.45
X4.0555Y-2.9492
X4.0555Y-3.5492
X4.0697Y-2.478
X4.1331Y-4.6264
X4.1555Y-2.9492
X4.1555Y-3.5492
X4.2039Y-3.7209
X4.2039Y-4.0209
X4.2395Y-4.2022
X4.2395Y-4.5022
X4.2555Y-2.9492
X4.2555Y-3.5492
X4.2665Y-2.478
X4.3039Y-3.7209
X4.3039Y-4.0209
X4.3395Y-4.2022
X4.3395Y-4.5022
X4.3555Y-2.9492
X4.3555Y-3.5492
X4.4039Y-3.7209
X4.4039Y-4.0209
X4.4395Y-4.2022
X4.4395Y-4.5022
X4.4555Y-2.9492
X4.4555Y-3.5492
X4.5039Y-3.7209
X4.5039Y-4.0209
X4.5395Y-4.2022
X4.5395Y-4.5022
X4.5555Y-2.9492
X4.5555Y-3.5492
X4.6039Y-3.7209
X4.6039Y-4.0209
X4.6395Y-4.2022
X4.6395Y-4.5022
X4.7039Y-3.7209
X4.7039Y-4.0209
X4.7331Y-3.1506
X4.7331Y-3.3474
X4.7395Y-4.2022
X4.7395Y-4.5022
X4.8039Y-3.7209
X4.8039Y-4.0209
X4.8395Y-4.2022
X4.8395Y-4.5022
X4.8957Y-3.0986
X4.8957Y-3.3986
X4.9957Y-3.0986
X4.9957Y-3.3986
X5.0343Y-3.7719
X5.0343Y-3.9687
X5.0343Y-4.2531
X5.0343Y-4.45
X5.0957Y-3.0986
X5.0957Y-3.3986
X5.0988Y-4.6264
X5.1957Y-3.0986
X5.1957Y-3.3986
X5.2287Y-3.7209
X5.2287Y-4.0209
X5.2287Y-4.2022
X5.2287Y-4.5022
X5.2957Y-4.6264
X5.3287Y-3.7209
X5.3287Y-4.0209
X5.3287Y-4.2022
X5.3287Y-4.5022
X5.3358Y-3.1506
X5.3358Y-3.3474
X5.4287Y-3.7209
X5.4287Y-4.0209
X5.4287Y-4.2022
X5.4287Y-4.5022
X5.4732Y-3.1506
X5.4732Y-3.3474
X5.5287Y-3.7209
X5.5287Y-4.0209
X5.5287Y-4.2022
X5.5287Y-4.5022
X5.6287Y-3.7209
X5.6287Y-4.0209
X5.6287Y-4.2022
X5.6287Y-4.5022
X5.7287Y-3.7209
X5.7287Y-4.0209
X5.7287Y-4.2022
X5.7287Y-4.5022
X5.8287Y-3.7209
X5.8287Y-4.0209
X5.8287Y-4.2022
X5.8287Y-4.5022
X5.9287Y-3.7209
X5.9287Y-4.0209
X5.9287Y-4.2022
X5.9287Y-4.5022
X6.1219Y-3.7719
X6.1219Y-3.9687
X6.1219Y-4.2531
X6.1219Y-4.45
X6.3163Y-3.7209
X6.3163Y-4.0209
X6.3163Y-4.2022
X6.3163Y-4.5022
X6.4163Y-3.7209
X6.4163Y-4.0209
X6.4163Y-4.2022
X6.4163Y-4.5022
X6.5163Y-3.7209
X6.5163Y-4.0209
X6.5163Y-4.2022
X6.5163Y-4.5022
X6.6163Y-3.7209
X6.6163Y-4.0209
X6.6163Y-4.2022
X6.6163Y-4.5022
X6.7163Y-3.7209
X6.7163Y-4.0209
X6.7163Y-4.2022
X6.7163Y-4.5022
X6.8163Y-3.7209
X6.8163Y-4.0209
X6.8163Y-4.2022
X6.8163Y-4.5022
X6.9163Y-3.7209
X6.9163Y-4.0209
X6.9163Y-4.2022
X6.9163Y-4.5022
X7.0163Y-3.7209
X7.0163Y-4.0209
X7.0163Y-4.2022
X7.0163Y-4.5022
X7.2095Y-3.7719
X7.2095Y-3.9687
X7.2095Y-4.2531
X7.2095Y-4.45
X7.2957Y-5.1648
X7.4039Y-3.7209
X7.4039Y-4.0209
X7.4039Y-4.2022
X7.4039Y-4.5022
X7.4925Y-5.1648
X7.5039Y-3.7209
X7.5039Y-4.0209
X7.5039Y-4.2022
X7.5039Y-4.5022
X7.6039Y-3.7209
X7.6039Y-4.0209
X7.6039Y-4.2022
X7.6039Y-4.5022
X7.6642Y-5.0663
X7.6642Y-5.2632
X7.7039Y-3.7209
X7.7039Y-4.0209
X7.7039Y-4.2022
X7.7039Y-4.5022
X7.8035Y-5.0144
X7.8035Y-5.3144
X7.8039Y-3.7209
X7.8039Y-4.0209
X7.8039Y-4.2022
X7.8039Y-4.5022
X7.9035Y-5.0144
X7.9035Y-5.3144
X7.9039Y-3.7209
X7.9039Y-4.0209
X7.9039Y-4.2022
X7.9039Y-4.5022
X8.0035Y-5.0144
X8.0035Y-5.3144
X8.0039Y-3.7209
X8.0039Y-4.0209
X8.0039Y-4.2022
X8.0039Y-4.5022
X8.1035Y-5.0144
X8.1035Y-5.3144
X8.1039Y-3.7209
X8.1039Y-4.0209
X8.1039Y-4.2022
X8.1039Y-4.5022
T6
X3.2417Y-5.0606
X3.2417Y-5.2606
X3.3008Y-1.7988
X3.3008Y-1.9988
X3.5417Y-5.0606
X3.5417Y-5.2606
X3.6008Y-1.7988
X3.6008Y-1.9988
X3.8226Y-5.0606
X3.8226Y-5.2606
X4.1226Y-5.0606
X4.1226Y-5.2606
X4.4035Y-5.0606
X4.4035Y-5.2606
X4.7035Y-5.0606
X4.7035Y-5.2606
X4.7382Y-2.2772
X4.7382Y-2.4772
X4.9844Y-5.0606
X4.9844Y-5.2606
X5.0382Y-2.2772
X5.0382Y-2.4772
X5.2844Y-5.0606
X5.2844Y-5.2606
X5.5654Y-5.0606
X5.5654Y-5.2606
X5.8654Y-5.0606
X5.8654Y-5.2606
X6.1463Y-5.0606
X6.1463Y-5.2606
X6.4463Y-5.0606
X6.4463Y-5.2606
X6.7272Y-5.0606
X6.7272Y-5.2606
X7.0272Y-5.0606
X7.0272Y-5.2606
T7
X3.3415Y-4.8154
X3.4415Y-4.8154
X3.7445Y-1.9047
X3.8445Y-1.9047
X3.9224Y-4.8154
X4.0224Y-4.8154
X4.5033Y-4.8154
X4.6033Y-4.8154
X5.0843Y-4.8154
X5.1843Y-4.8154
X5.2815Y-2.2827
X5.3815Y-2.2827
X5.4807Y-2.2827
X5.5807Y-2.2827
X5.6652Y-4.8154
X5.6717Y-2.2827
X5.6787Y-3.3951
X5.7652Y-4.8154
X5.7717Y-2.2827
X5.7787Y-3.3951
X5.8752Y-2.2827
X5.8787Y-3.3943
X5.9752Y-2.2827
X5.9787Y-3.3943
X6.0791Y-2.2827
X6.0811Y-3.3943
X6.1791Y-2.2827
X6.1811Y-3.3943
X6.2461Y-4.8154
X6.3461Y-4.8154
X6.6248Y-2.2827
X6.6276Y-2.8425
X6.6283Y-3.3943
X6.7248Y-2.2827
X6.7276Y-2.8425
X6.7283Y-3.3943
X6.8256Y-2.2827
X6.827Y-4.8154
X6.8284Y-2.8425
X6.8295Y-3.3943
X6.9256Y-2.2827
X6.927Y-4.8154
X6.9284Y-2.8425
X6.9295Y-3.3943
X7.0265Y-2.2827
X7.0293Y-2.8425
X7.0307Y-3.3943
X7.1265Y-2.2827
X7.1293Y-2.8425
X7.1307Y-3.3943
X7.2273Y-2.2827
X7.2301Y-2.8425
X7.2319Y-3.3943
X7.3273Y-2.2827
X7.3301Y-2.8425
X7.3319Y-3.3943
X7.4Y-4.8091
X7.4282Y-2.2827
X7.4309Y-2.8425
X7.4331Y-3.3943
X7.5Y-4.8091
X7.5282Y-2.2827
X7.5309Y-2.8425
X7.5331Y-3.3943
X7.629Y-2.2827
X7.6318Y-2.8425
X7.6343Y-3.3943
X7.729Y-2.2827
X7.7318Y-2.8425
X7.7343Y-3.3943
X7.8299Y-2.2827
X7.8326Y-2.8425
X7.8354Y-3.3943
X7.9299Y-2.2827
X7.9326Y-2.8425
X7.9354Y-3.3943
X8.0307Y-2.2827
X8.0335Y-2.8425
X8.0366Y-3.3943
X8.1307Y-2.2827
X8.1335Y-2.8425
X8.1366Y-3.3943
X8.8417Y-2.1004
X8.8417Y-2.4873
X8.8417Y-2.8743
X8.8417Y-3.2612
X8.8417Y-3.6482
X8.8417Y-4.0352
X8.8417Y-4.4221
X8.8417Y-4.8091
X8.9417Y-2.1004
X8.9417Y-2.4873
X8.9417Y-2.8743
X8.9417Y-3.2612
X8.9417Y-3.6482
X8.9417Y-4.0352
X8.9417Y-4.4221
X8.9417Y-4.8091
T8
X2.9799Y-2.1776
X2.9799Y-2.7776
X3.0799Y-2.1776
X3.0799Y-2.7776
X3.1799Y-2.1776
X3.1799Y-2.7776
X3.2799Y-2.1776
X3.2799Y-2.7776
X3.3799Y-2.1776
X3.3799Y-2.7776
X3.4799Y-2.1776
X3.4799Y-2.7776
X3.5799Y-2.1776
X3.5799Y-2.7776
X3.6799Y-2.1776
X3.6799Y-2.7776
X3.7799Y-2.1776
X3.7799Y-2.7776
X3.8799Y-2.1776
X3.8799Y-2.7776
X3.9799Y-2.1776
X3.9799Y-2.7776
X4.0799Y-2.1776
X4.0799Y-2.7776
X4.1799Y-2.1776
X4.1799Y-2.7776
X4.2799Y-2.1776
X4.2799Y-2.7776
X4.3799Y-2.1776
X4.3799Y-2.7776
T9
X8.5354Y-5.1638
X8.7323Y-5.0654
X8.7323Y-5.2622
T10
X2.9752Y-1.8228
X2.9752Y-5.4705
X7.3287Y-5.4705
X8.9413Y-1.8228
X8.9413Y-5.4705
T2
G00X3.1949Y-5.5488
M15
G01X3.1949Y-5.4661
M16
G05
G00X3.5886Y-5.5488
M15
G01X3.5886Y-5.4661
M16
G05
G00X3.7758Y-5.5488
M15
G01X3.7758Y-5.4661
M16
G05
G00X4.1695Y-5.5488
M15
G01X4.1695Y-5.4661
M16
G05
G00X4.3567Y-5.5488
M15
G01X4.3567Y-5.4661
M16
G05
G00X4.4886Y-1.7748
M15
G01X4.4886Y-1.8575
M16
G05
G00X4.7504Y-5.5488
M15
G01X4.7504Y-5.4661
M16
G05
G00X4.8823Y-1.7748
M15
G01X4.8823Y-1.8575
M16
G05
G00X4.9376Y-5.5488
M15
G01X4.9376Y-5.4661
M16
G05
G00X5.3313Y-5.5488
M15
G01X5.3313Y-5.4661
M16
G05
G00X5.5185Y-5.5488
M15
G01X5.5185Y-5.4661
M16
G05
G00X5.5677Y-1.774
M15
G01X5.5677Y-1.8567
M16
G05
G00X5.9122Y-5.5488
M15
G01X5.9122Y-5.4661
M16
G05
G00X5.9614Y-1.774
M15
G01X5.9614Y-1.8567
M16
G05
G00X6.0994Y-5.5488
M15
G01X6.0994Y-5.4661
M16
G05
G00X6.4931Y-5.5488
M15
G01X6.4931Y-5.4661
M16
G05
G00X6.6803Y-5.5488
M15
G01X6.6803Y-5.4661
M16
G05
G00X7.074Y-5.5488
M15
G01X7.074Y-5.4661
M16
G05
T0
M30
