M48
; DRILL file {KiCad 7.0.7} date Mon Feb 19 17:24:09 2024
; FORMAT={-:-/ absolute / inch / decimal}
; #@! TF.CreationDate,2024-02-19T17:24:09+01:00
; #@! TF.GenerationSoftware,Kicad,Pcbnew,7.0.7
; #@! TF.FileFunction,Plated,1,2,PTH
FMAT,2
INCH
; #@! TA.AperFunction,Plated,PTH,ViaDrill
T1C0.0157
; #@! TA.AperFunction,Plated,PTH,ComponentDrill
T2C0.0197
; #@! TA.AperFunction,Plated,PTH,ComponentDrill
T3C0.0276
; #@! TA.AperFunction,Plated,PTH,ComponentDrill
T4C0.0300
; #@! TA.AperFunction,Plated,PTH,ComponentDrill
T5C0.0315
; #@! TA.AperFunction,Plated,PTH,ComponentDrill
T6C0.0320
; #@! TA.AperFunction,Plated,PTH,ComponentDrill
T7C0.0354
; #@! TA.AperFunction,Plated,PTH,ComponentDrill
T8C0.0394
; #@! TA.AperFunction,Plated,PTH,ComponentDrill
T9C0.0512
; #@! TA.AperFunction,Plated,PTH,ViaDrill
T10C0.1181
%
G90
G05
T1
X2.875Y-2.05
X2.875Y-2.15
X2.9Y-4.075
X2.925Y-3.75
X2.975Y-2.575
X2.975Y-5.025
X2.975Y-5.175
X3.025Y-2.3
X3.025Y-4.7
X3.05Y-3.475
X3.1Y-3.6
X3.125Y-2.65
X3.15Y-4.15
X3.175Y-1.9
X3.275Y-3.425
X3.3Y-3.825
X3.35Y-3.875
X3.375Y-2.375
X3.375Y-2.55
X3.375Y-3.825
X3.425Y-2.05
X3.539Y-4.9434
X3.55Y-3.825
X3.6Y-2.25
X3.625Y-3.075
X3.65Y-2.85
X3.662Y-4.8018
X3.675Y-3.2
X3.675Y-4.35
X3.7Y-3.825
X3.7002Y-4.8402
X3.725Y-2.1
X3.725Y-3.075
X3.725Y-3.275
X3.725Y-5.375
X3.8Y-3.35
X3.8003Y-5.2197
X3.8102Y-4.1405
X3.85Y-1.75
X3.85Y-3.1
X3.875Y-5.35
X3.8946Y-4.9204
X3.9Y-2.475
X3.9Y-3.625
X3.9Y-4.725
X3.925Y-2.6
X3.95Y-2.825
X3.95Y-3.175
X3.95Y-3.85
X3.95Y-3.95
X3.95Y-4.025
X3.95Y-4.95
X3.975Y-2.3
X4.0Y-1.8
X4.0Y-3.025
X4.025Y-4.15
X4.025Y-4.675
X4.05Y-3.075
X4.05Y-3.25
X4.05Y-4.95
X4.075Y-2.825
X4.0967Y-5.3808
X4.099Y-2.6492
X4.1Y-3.675
X4.1Y-4.05
X4.1163Y-5.3165
X4.125Y-2.325
X4.15Y-2.3
X4.15Y-3.15
X4.15Y-4.3
X4.15Y-4.925
X4.175Y-3.825
X4.2Y-2.075
X4.2Y-2.65
X4.2Y-3.4
X4.2Y-4.125
X4.2Y-5.2
X4.22Y-2.855
X4.225Y-1.8
X4.25Y-3.025
X4.25Y-3.325
X4.25Y-5.05
X4.2706Y-2.8739
X4.275Y-3.125
X4.275Y-3.95
X4.3Y-5.475
X4.325Y-2.825
X4.325Y-5.125
X4.35Y-2.65
X4.35Y-2.85
X4.35Y-3.175
X4.35Y-4.4
X4.375Y-2.375
X4.375Y-5.025
X4.3754Y-3.4551
X4.3995Y-4.1112
X4.4Y-2.85
X4.4Y-3.275
X4.4Y-4.775
X4.425Y-4.65
X4.45Y-3.65
X4.4585Y-2.7274
X4.4603Y-4.9218
X4.4767Y-3.9378
X4.5Y-2.375
X4.5Y-2.65
X4.5Y-5.175
X4.525Y-2.85
X4.525Y-4.375
X4.5378Y-3.2488
X4.5385Y-4.081
X4.55Y-2.175
X4.55Y-2.75
X4.5537Y-2.0345
X4.575Y-3.4
X4.6Y-3.125
X4.625Y-1.6
X4.625Y-3.175
X4.6324Y-5.1352
X4.65Y-2.575
X4.65Y-2.65
X4.65Y-2.75
X4.675Y-2.175
X4.675Y-3.0
X4.7Y-3.55
X4.725Y-5.175
X4.75Y-4.375
X4.7655Y-4.1063
X4.775Y-4.775
X4.825Y-2.775
X4.825Y-3.075
X4.85Y-2.575
X4.8548Y-3.5668
X4.875Y-2.025
X4.875Y-5.5
X4.9Y-3.2
X4.9Y-4.625
X4.95Y-2.75
X4.95Y-3.65
X4.95Y-4.15
X4.975Y-2.575
X5.0Y-3.2
X5.0Y-4.15
X5.0207Y-3.3236
X5.025Y-1.95
X5.025Y-3.525
X5.05Y-4.05
X5.075Y-2.15
X5.075Y-4.15
X5.075Y-5.2
X5.1Y-3.0
X5.1Y-3.2
X5.1Y-3.675
X5.1043Y-2.8002
X5.1044Y-2.8494
X5.125Y-1.75
X5.125Y-1.8
X5.125Y-2.375
X5.125Y-2.575
X5.125Y-4.15
X5.1365Y-3.8455
X5.15Y-4.475
X5.1681Y-2.2159
X5.175Y-2.85
X5.175Y-4.925
X5.175Y-5.175
X5.1984Y-4.7128
X5.2Y-3.0
X5.2Y-3.2
X5.225Y-1.95
X5.25Y-2.75
X5.25Y-2.95
X5.2656Y-4.6745
X5.3Y-4.35
X5.3Y-4.95
X5.35Y-3.525
X5.375Y-1.975
X5.375Y-4.775
X5.4192Y-3.1135
X5.425Y-2.4
X5.425Y-2.475
X5.425Y-2.675
X5.425Y-4.625
X5.4442Y-4.3813
X5.45Y-5.475
X5.475Y-3.525
X5.525Y-1.975
X5.525Y-2.825
X5.5407Y-2.0439
X5.6Y-3.525
X5.65Y-1.975
X5.6543Y-3.9444
X5.675Y-4.6
X5.7Y-4.95
X5.7952Y-4.5785
X5.8Y-2.8
X5.825Y-1.975
X5.825Y-4.35
X5.85Y-3.525
X5.8849Y-3.6428
X5.8881Y-3.8302
X5.9Y-4.3
X5.95Y-2.8
X5.9897Y-3.5509
X6.0Y-3.25
X6.0Y-4.125
X6.0Y-4.3
X6.0Y-4.525
X6.0Y-4.625
X6.0Y-4.775
X6.05Y-5.425
X6.05Y-5.525
X6.0592Y-3.3226
X6.0706Y-3.6608
X6.0798Y-4.107
X6.1Y-2.825
X6.1213Y-4.3461
X6.1217Y-3.5868
X6.1375Y-4.6745
X6.222Y-3.6227
X6.225Y-2.0
X6.225Y-4.45
X6.225Y-4.5
X6.225Y-5.15
X6.25Y-2.325
X6.25Y-3.25
X6.3Y-2.275
X6.3Y-4.95
X6.3Y-5.35
X6.325Y-2.0
X6.325Y-2.45
X6.325Y-2.775
X6.35Y-2.575
X6.375Y-1.75
X6.375Y-3.25
X6.4Y-5.35
X6.5Y-5.15
X6.55Y-2.45
X6.55Y-2.575
X6.55Y-4.7
X6.55Y-4.75
X6.6Y-5.375
X6.625Y-3.525
X6.625Y-5.525
X6.7Y-2.925
X6.725Y-3.1
X6.7427Y-2.5247
X6.7483Y-4.3082
X6.75Y-1.8
X6.7592Y-3.9391
X6.7593Y-3.8987
X6.825Y-5.175
X6.85Y-3.075
X6.85Y-3.925
X6.85Y-4.3
X6.85Y-4.95
X6.85Y-5.35
X6.8626Y-2.5808
X6.875Y-4.375
X6.875Y-4.65
X6.9Y-3.525
X6.925Y-2.9
X6.95Y-2.125
X6.95Y-2.675
X6.95Y-3.125
X6.95Y-3.275
X6.975Y-2.35
X6.975Y-4.4
X6.975Y-5.35
X7.0Y-1.8
X7.0102Y-2.5139
X7.025Y-5.15
X7.0282Y-4.333
X7.05Y-2.65
X7.05Y-3.525
X7.05Y-4.675
X7.075Y-4.35
X7.1Y-2.9
X7.1Y-3.1
X7.1Y-4.2
X7.1006Y-3.8651
X7.125Y-3.925
X7.125Y-4.3
X7.125Y-4.45
X7.1461Y-3.5439
X7.15Y-3.275
X7.175Y-2.65
X7.225Y-1.8
X7.225Y-2.375
X7.225Y-2.475
X7.225Y-4.675
X7.25Y-2.075
X7.2503Y-4.9117
X7.275Y-3.5
X7.3Y-4.175
X7.3Y-4.45
X7.325Y-2.9
X7.325Y-3.1
X7.325Y-3.95
X7.325Y-4.325
X7.3529Y-5.291
X7.4Y-3.275
X7.425Y-2.3
X7.4367Y-4.4008
X7.45Y-1.8
X7.45Y-2.475
X7.45Y-2.675
X7.475Y-5.075
X7.4762Y-3.2658
X7.5Y-3.05
X7.5Y-4.325
X7.5487Y-4.9026
X7.55Y-2.9
X7.55Y-3.85
X7.6Y-5.475
X7.675Y-2.075
X7.675Y-2.5
X7.675Y-4.725
X7.7Y-1.8
X7.7848Y-4.9661
X7.825Y-5.475
X7.875Y-2.35
X7.875Y-2.475
X8.0Y-5.225
X8.075Y-5.475
X8.0772Y-4.8399
X8.1Y-3.525
X8.125Y-2.0
X8.1451Y-4.8522
X8.1531Y-4.9169
X8.2Y-4.6
X8.225Y-3.125
X8.225Y-4.95
X8.25Y-4.2
X8.275Y-4.5
X8.275Y-5.475
X8.3104Y-3.5828
X8.325Y-2.05
X8.35Y-2.45
X8.425Y-2.575
X8.425Y-2.975
X8.425Y-3.225
X8.425Y-3.525
X8.45Y-1.825
X8.45Y-2.65
X8.45Y-2.75
X8.45Y-4.2
X8.525Y-1.825
X8.55Y-2.85
X8.55Y-2.95
X8.575Y-3.025
X8.625Y-1.825
X8.625Y-5.15
X8.65Y-4.9
X8.675Y-4.425
X8.675Y-4.725
X8.7Y-1.825
X8.7Y-3.4
X8.7Y-4.2
X8.7Y-4.625
X8.75Y-3.75
X8.825Y-3.325
X8.85Y-3.525
X8.875Y-2.875
X8.875Y-3.075
X8.875Y-3.175
X8.9Y-2.65
X8.925Y-3.025
X8.95Y-3.375
X8.975Y-2.725
T3
X3.1598Y-4.9524
X3.1598Y-5.2524
X3.6543Y-4.9524
X3.6543Y-5.2524
X3.759Y-4.9516
X3.759Y-5.2516
X3.7829Y-2.328
X3.7829Y-2.628
X4.0071Y-1.9173
X4.0079Y-1.9965
X4.2528Y-4.9516
X4.2528Y-5.2516
X4.3071Y-1.9173
X4.3079Y-1.9965
X4.3416Y-4.9508
X4.3416Y-5.2508
X4.75Y-2.6543
X4.75Y-2.9543
X4.8348Y-4.9508
X4.8348Y-5.2508
X4.85Y-2.6543
X4.85Y-2.9543
X4.9189Y-4.9508
X4.9189Y-5.2508
X4.95Y-2.6543
X4.95Y-2.9543
X5.05Y-2.6543
X5.05Y-2.9543
X5.3317Y-2.425
X5.3317Y-2.725
X5.4114Y-4.9508
X5.4114Y-5.2508
X5.51Y-4.9524
X5.51Y-5.2524
X5.525Y-2.425
X5.525Y-2.725
X5.525Y-4.625
X5.5252Y-2.95
X5.5252Y-3.25
X5.725Y-2.415
X5.725Y-2.715
X5.7252Y-2.95
X5.7252Y-3.25
X5.825Y-4.625
X5.925Y-2.415
X5.925Y-2.715
X5.9252Y-2.95
X5.9252Y-3.25
X6.0019Y-4.9524
X6.0019Y-5.2524
X6.091Y-4.9524
X6.091Y-5.2524
X6.1207Y-2.415
X6.1207Y-2.715
X6.1252Y-2.9496
X6.1252Y-3.2496
X6.3252Y-2.9496
X6.3252Y-3.2496
X6.5252Y-2.9496
X6.5252Y-3.2496
X6.5822Y-4.9524
X6.5822Y-5.2524
X6.6502Y-1.7994
X6.6502Y-2.0994
X6.6559Y-2.3724
X6.6559Y-2.6724
X6.6762Y-4.9524
X6.6762Y-5.2524
X6.868Y-2.9754
X6.868Y-3.2754
X6.8752Y-1.7994
X6.8752Y-2.0994
X6.8811Y-2.3724
X6.8811Y-2.6724
X7.0934Y-2.9754
X7.0934Y-3.2754
X7.1002Y-1.7994
X7.1002Y-2.0994
X7.1061Y-2.3724
X7.1061Y-2.6724
X7.1667Y-4.9524
X7.1667Y-5.2524
X7.3189Y-2.9754
X7.3189Y-3.2754
X7.3252Y-1.7994
X7.3252Y-2.0994
X7.3311Y-2.3724
X7.3311Y-2.6724
X7.5443Y-2.9754
X7.5443Y-3.2754
X7.5502Y-1.7994
X7.5502Y-2.0994
X7.5561Y-2.3724
X7.5561Y-2.6724
X7.7728Y-2.975
X7.7728Y-3.275
X7.7752Y-1.7994
X7.7752Y-2.0994
X7.7809Y-2.3724
X7.7809Y-2.6724
X7.9978Y-2.975
X7.9978Y-3.275
X8.0002Y-1.7994
X8.0002Y-2.0994
X8.0059Y-2.375
X8.0059Y-2.675
X8.1567Y-5.0663
X8.1567Y-5.3663
X8.2228Y-2.9754
X8.2228Y-3.2754
X8.2252Y-1.7994
X8.2252Y-2.0994
X8.2252Y-2.3724
X8.2252Y-2.6724
X8.2713Y-5.0663
X8.2713Y-5.3663
X8.4201Y-3.6472
X8.4203Y-4.098
X8.4205Y-3.8726
X8.4205Y-4.3234
X8.4205Y-4.5488
X8.425Y-4.7742
X8.425Y-4.9996
X8.425Y-5.225
X8.7201Y-3.6472
X8.7203Y-4.098
X8.7205Y-3.8726
X8.7205Y-4.3234
X8.7205Y-4.5488
X8.725Y-4.7742
X8.725Y-4.9996
X8.725Y-5.225
T4
X3.3244Y-5.4508
X3.3244Y-5.5492
X3.4031Y-5.4508
X3.4031Y-5.5492
X3.4819Y-5.4508
X3.4819Y-5.5492
X3.925Y-5.45
X3.925Y-5.5484
X4.0037Y-5.45
X4.0037Y-5.5484
X4.0825Y-5.45
X4.0825Y-5.5484
X4.5091Y-5.4492
X4.5091Y-5.5476
X4.5878Y-5.4492
X4.5878Y-5.5476
X4.6067Y-1.7669
X4.6067Y-1.8654
X4.6665Y-5.4492
X4.6665Y-5.5476
X4.6854Y-1.7669
X4.6854Y-1.8654
X4.7642Y-1.7669
X4.7642Y-1.8654
X5.0878Y-5.4492
X5.0878Y-5.5476
X5.1665Y-5.4492
X5.1665Y-5.5476
X5.2453Y-5.4492
X5.2453Y-5.5476
X5.6803Y-5.4508
X5.6803Y-5.5492
X5.6858Y-1.7661
X5.6858Y-1.8646
X5.7591Y-5.4508
X5.7591Y-5.5492
X5.7646Y-1.7661
X5.7646Y-1.8646
X5.8378Y-5.4508
X5.8378Y-5.5492
X5.8433Y-1.7661
X5.8433Y-1.8646
X6.2628Y-5.4508
X6.2628Y-5.5492
X6.3415Y-5.4508
X6.3415Y-5.5492
X6.4203Y-5.4508
X6.4203Y-5.5492
X6.8494Y-5.4508
X6.8494Y-5.5492
X6.9281Y-5.4508
X6.9281Y-5.5492
X7.0069Y-5.4508
X7.0069Y-5.5492
T5
X3.0559Y-3.1506
X3.0559Y-3.3474
X3.0559Y-3.7719
X3.0559Y-3.9687
X3.0559Y-4.2531
X3.0559Y-4.45
X3.2503Y-4.2022
X3.2503Y-4.5022
X3.2555Y-2.9492
X3.2555Y-3.5492
X3.2555Y-3.7209
X3.2555Y-4.0209
X3.3503Y-4.2022
X3.3503Y-4.5022
X3.3555Y-2.9492
X3.3555Y-3.5492
X3.3555Y-3.7209
X3.3555Y-4.0209
X3.4503Y-4.2022
X3.4503Y-4.5022
X3.4555Y-2.9492
X3.4555Y-3.5492
X3.4555Y-3.7209
X3.4555Y-4.0209
X3.5112Y-2.328
X3.5112Y-2.628
X3.5503Y-4.2022
X3.5503Y-4.5022
X3.5555Y-2.9492
X3.5555Y-3.5492
X3.5555Y-3.7209
X3.5555Y-4.0209
X3.6503Y-4.2022
X3.6503Y-4.5022
X3.651Y-2.328
X3.651Y-2.628
X3.6555Y-2.9492
X3.6555Y-3.5492
X3.6555Y-3.7209
X3.6555Y-4.0209
X3.7503Y-4.2022
X3.7503Y-4.5022
X3.7555Y-2.9492
X3.7555Y-3.5492
X3.7555Y-3.7209
X3.7555Y-4.0209
X3.8503Y-4.2022
X3.8503Y-4.5022
X3.8555Y-2.9492
X3.8555Y-3.5492
X3.8555Y-3.7209
X3.8555Y-4.0209
X3.9555Y-2.9492
X3.9555Y-3.5492
X4.0451Y-3.7719
X4.0451Y-3.9687
X4.0451Y-4.2531
X4.0451Y-4.45
X4.0555Y-2.9492
X4.0555Y-3.5492
X4.0697Y-2.478
X4.1555Y-2.9492
X4.1555Y-3.5492
X4.1681Y-2.478
X4.2039Y-3.7209
X4.2039Y-4.0209
X4.2395Y-4.2022
X4.2395Y-4.5022
X4.2555Y-2.9492
X4.2555Y-3.5492
X4.3039Y-3.7209
X4.3039Y-4.0209
X4.3395Y-4.2022
X4.3395Y-4.5022
X4.3555Y-2.9492
X4.3555Y-3.5492
X4.4039Y-3.7209
X4.4039Y-4.0209
X4.4395Y-4.2022
X4.4395Y-4.5022
X4.4555Y-2.9492
X4.4555Y-3.5492
X4.5039Y-3.7209
X4.5039Y-4.0209
X4.5395Y-4.2022
X4.5395Y-4.5022
X4.5555Y-2.9492
X4.5555Y-3.5492
X4.6039Y-3.7209
X4.6039Y-4.0209
X4.6395Y-4.2022
X4.6395Y-4.5022
X4.7039Y-3.7209
X4.7039Y-4.0209
X4.7331Y-3.1506
X4.7331Y-3.3474
X4.7395Y-4.2022
X4.7395Y-4.5022
X4.8039Y-3.7209
X4.8039Y-4.0209
X4.8395Y-4.2022
X4.8395Y-4.5022
X4.8957Y-3.0986
X4.8957Y-3.3986
X4.9957Y-3.0986
X4.9957Y-3.3986
X5.0343Y-3.7719
X5.0343Y-3.9687
X5.0343Y-4.2531
X5.0343Y-4.45
X5.0957Y-3.0986
X5.0957Y-3.3986
X5.0988Y-4.6264
X5.1957Y-3.0986
X5.1957Y-3.3986
X5.2287Y-3.7209
X5.2287Y-4.0209
X5.2287Y-4.2022
X5.2287Y-4.5022
X5.2957Y-4.6264
X5.3287Y-3.7209
X5.3287Y-4.0209
X5.3287Y-4.2022
X5.3287Y-4.5022
X5.35Y-2.8281
X5.35Y-3.025
X5.35Y-3.175
X5.35Y-3.3719
X5.4287Y-3.7209
X5.4287Y-4.0209
X5.4287Y-4.2022
X5.4287Y-4.5022
X5.5287Y-3.7209
X5.5287Y-4.0209
X5.5287Y-4.2022
X5.5287Y-4.5022
X5.6287Y-3.7209
X5.6287Y-4.0209
X5.6287Y-4.2022
X5.6287Y-4.5022
X5.7287Y-3.7209
X5.7287Y-4.0209
X5.7287Y-4.2022
X5.7287Y-4.5022
X5.8287Y-3.7209
X5.8287Y-4.0209
X5.8287Y-4.2022
X5.8287Y-4.5022
X5.9287Y-3.7209
X5.9287Y-4.0209
X5.9287Y-4.2022
X5.9287Y-4.5022
X6.1219Y-3.7719
X6.1219Y-3.9687
X6.1219Y-4.2531
X6.1219Y-4.45
X6.3163Y-3.7209
X6.3163Y-4.0209
X6.3163Y-4.2022
X6.3163Y-4.5022
X6.4163Y-3.7209
X6.4163Y-4.0209
X6.4163Y-4.2022
X6.4163Y-4.5022
X6.5163Y-3.7209
X6.5163Y-4.0209
X6.5163Y-4.2022
X6.5163Y-4.5022
X6.6163Y-3.7209
X6.6163Y-4.0209
X6.6163Y-4.2022
X6.6163Y-4.5022
X6.7163Y-3.7209
X6.7163Y-4.0209
X6.7163Y-4.2022
X6.7163Y-4.5022
X6.8163Y-3.7209
X6.8163Y-4.0209
X6.8163Y-4.2022
X6.8163Y-4.5022
X6.9163Y-3.7209
X6.9163Y-4.0209
X6.9163Y-4.2022
X6.9163Y-4.5022
X7.0163Y-3.7209
X7.0163Y-4.0209
X7.0163Y-4.2022
X7.0163Y-4.5022
X7.2095Y-3.7719
X7.2095Y-3.9687
X7.2095Y-4.2531
X7.2095Y-4.45
X7.3266Y-5.2
X7.4039Y-3.7209
X7.4039Y-4.0209
X7.4039Y-4.2022
X7.4039Y-4.5022
X7.425Y-5.2
X7.5039Y-3.7209
X7.5039Y-4.0209
X7.5039Y-4.2022
X7.5039Y-4.5022
X7.5902Y-5.1179
X7.5902Y-5.3148
X7.6039Y-3.7209
X7.6039Y-4.0209
X7.6039Y-4.2022
X7.6039Y-4.5022
X7.7039Y-3.7209
X7.7039Y-4.0209
X7.7039Y-4.2022
X7.7039Y-4.5022
X7.7295Y-5.0659
X7.7295Y-5.3659
X7.8039Y-3.7209
X7.8039Y-4.0209
X7.8039Y-4.2022
X7.8039Y-4.5022
X7.8295Y-5.0659
X7.8295Y-5.3659
X7.9039Y-3.7209
X7.9039Y-4.0209
X7.9039Y-4.2022
X7.9039Y-4.5022
X7.9295Y-5.0659
X7.9295Y-5.3659
X8.0039Y-3.7209
X8.0039Y-4.0209
X8.0039Y-4.2022
X8.0039Y-4.5022
X8.0295Y-5.0659
X8.0295Y-5.3659
X8.1039Y-3.7209
X8.1039Y-4.0209
X8.1039Y-4.2022
X8.1039Y-4.5022
T6
X3.2531Y-5.0531
X3.2531Y-5.2531
X3.3008Y-1.7988
X3.3008Y-1.9988
X3.5531Y-5.0531
X3.5531Y-5.2531
X3.6008Y-1.7988
X3.6008Y-1.9988
X3.8537Y-5.0524
X3.8537Y-5.2524
X4.1537Y-5.0524
X4.1537Y-5.2524
X4.4378Y-5.0516
X4.4378Y-5.2516
X4.7378Y-5.0516
X4.7378Y-5.2516
X4.7382Y-2.2772
X4.7382Y-2.4772
X5.0165Y-5.0516
X5.0165Y-5.2516
X5.0382Y-2.2772
X5.0382Y-2.4772
X5.3165Y-5.0516
X5.3165Y-5.2516
X5.6091Y-5.0531
X5.6091Y-5.2531
X5.9091Y-5.0531
X5.9091Y-5.2531
X6.1915Y-5.0531
X6.1915Y-5.2531
X6.4915Y-5.0531
X6.4915Y-5.2531
X6.7781Y-5.0531
X6.7781Y-5.2531
X7.0781Y-5.0531
X7.0781Y-5.2531
T7
X3.353Y-4.8079
X3.453Y-4.8079
X3.7445Y-1.9047
X3.8445Y-1.9047
X3.9535Y-4.8071
X4.0535Y-4.8071
X4.5376Y-4.8063
X4.6376Y-4.8063
X5.1163Y-4.8063
X5.2163Y-4.8063
X5.2815Y-2.235
X5.3815Y-2.235
X5.4748Y-2.235
X5.4839Y-3.4008
X5.5748Y-2.235
X5.5839Y-3.4008
X5.6748Y-2.225
X5.6821Y-3.4
X5.7089Y-4.8079
X5.7748Y-2.225
X5.7821Y-3.4
X5.8089Y-4.8079
X5.8748Y-2.225
X5.8803Y-3.4
X5.9748Y-2.225
X5.9803Y-3.4
X6.0705Y-2.225
X6.0785Y-3.4
X6.1705Y-2.225
X6.1785Y-3.4
X6.2768Y-3.4
X6.2913Y-4.8079
X6.3768Y-3.4
X6.3913Y-4.8079
X6.475Y-3.4
X6.575Y-3.4
X6.6Y-2.225
X6.6057Y-2.8
X6.7Y-2.225
X6.7057Y-2.8
X6.8228Y-3.4
X6.825Y-2.225
X6.8309Y-2.8
X6.878Y-4.8079
X6.9228Y-3.4
X6.925Y-2.225
X6.9309Y-2.8
X6.978Y-4.8079
X7.0478Y-3.4
X7.05Y-2.225
X7.0559Y-2.8
X7.1478Y-3.4
X7.15Y-2.225
X7.1559Y-2.8
X7.2728Y-3.4
X7.275Y-2.225
X7.2809Y-2.8
X7.3728Y-3.4
X7.375Y-2.225
X7.3809Y-2.8
X7.4Y-4.8091
X7.4978Y-3.4
X7.5Y-2.225
X7.5Y-4.8091
X7.5059Y-2.8
X7.5978Y-3.4
X7.6Y-2.225
X7.6059Y-2.8
X7.725Y-2.225
X7.7259Y-3.3996
X7.7307Y-2.8
X7.825Y-2.225
X7.8259Y-3.3996
X7.8307Y-2.8
X7.95Y-2.225
X7.9504Y-3.3996
X7.9557Y-2.8026
X8.05Y-2.225
X8.0504Y-3.3996
X8.0557Y-2.8026
X8.175Y-2.225
X8.175Y-2.8
X8.175Y-3.4
X8.275Y-2.225
X8.275Y-2.8
X8.275Y-3.4
X8.8498Y-4.1
X8.85Y-3.65
X8.85Y-3.875
X8.85Y-4.325
X8.85Y-4.55
X8.8545Y-4.775
X8.8545Y-5.0
X8.8545Y-5.225
X8.9498Y-4.1
X8.95Y-3.65
X8.95Y-3.875
X8.95Y-4.325
X8.95Y-4.55
X8.9545Y-4.775
X8.9545Y-5.0
X8.9545Y-5.225
T8
X2.9799Y-2.1776
X2.9799Y-2.7776
X3.0799Y-2.1776
X3.0799Y-2.7776
X3.1799Y-2.1776
X3.1799Y-2.7776
X3.2799Y-2.1776
X3.2799Y-2.7776
X3.3799Y-2.1776
X3.3799Y-2.7776
X3.4799Y-2.1776
X3.4799Y-2.7776
X3.5799Y-2.1776
X3.5799Y-2.7776
X3.6799Y-2.1776
X3.6799Y-2.7776
X3.7799Y-2.1776
X3.7799Y-2.7776
X3.8799Y-2.1776
X3.8799Y-2.7776
X3.9799Y-2.1776
X3.9799Y-2.7776
X4.0799Y-2.1776
X4.0799Y-2.7776
X4.1799Y-2.1776
X4.1799Y-2.7776
X4.2799Y-2.1776
X4.2799Y-2.7776
X4.3799Y-2.1776
X4.3799Y-2.7776
X8.65Y-2.4
X8.65Y-2.5
X8.65Y-2.6
X8.65Y-2.7
X8.65Y-2.8
X8.65Y-2.9
X8.65Y-3.0
X8.65Y-3.1
X8.65Y-3.2
X8.75Y-2.4
X8.75Y-2.5
X8.75Y-2.6
X8.75Y-2.7
X8.75Y-2.8
X8.75Y-2.9
X8.75Y-3.0
X8.75Y-3.1
X8.75Y-3.2
T9
X7.8516Y-4.7281
X7.95Y-4.925
X8.0484Y-4.7281
T10
X3.0Y-1.8274
X3.0Y-5.475
X7.3535Y-5.475
X8.9661Y-1.8274
X8.9661Y-5.475
T2
G00X3.2063Y-5.5413
M15
G01X3.2063Y-5.4587
M16
G05
G00X3.6Y-5.5413
M15
G01X3.6Y-5.4587
M16
G05
G00X3.8069Y-5.5406
M15
G01X3.8069Y-5.4579
M16
G05
G00X4.2006Y-5.5406
M15
G01X4.2006Y-5.4579
M16
G05
G00X4.3909Y-5.5398
M15
G01X4.3909Y-5.4571
M16
G05
G00X4.4886Y-1.7748
M15
G01X4.4886Y-1.8575
M16
G05
G00X4.7846Y-5.5398
M15
G01X4.7846Y-5.4571
M16
G05
G00X4.8823Y-1.7748
M15
G01X4.8823Y-1.8575
M16
G05
G00X4.9697Y-5.5398
M15
G01X4.9697Y-5.4571
M16
G05
G00X5.3634Y-5.5398
M15
G01X5.3634Y-5.4571
M16
G05
G00X5.5622Y-5.5413
M15
G01X5.5622Y-5.4587
M16
G05
G00X5.5677Y-1.774
M15
G01X5.5677Y-1.8567
M16
G05
G00X5.9559Y-5.5413
M15
G01X5.9559Y-5.4587
M16
G05
G00X5.9614Y-1.774
M15
G01X5.9614Y-1.8567
M16
G05
G00X6.1447Y-5.5413
M15
G01X6.1447Y-5.4587
M16
G05
G00X6.5384Y-5.5413
M15
G01X6.5384Y-5.4587
M16
G05
G00X6.7313Y-5.5413
M15
G01X6.7313Y-5.4587
M16
G05
G00X7.125Y-5.5413
M15
G01X7.125Y-5.4587
M16
G05
T0
M30
